<svg width="398" height="225" viewBox="0 0 398 225" fill="none" xmlns="http://www.w3.org/2000/svg">
<rect width="398" height="224.044" fill="#F9F9F9"/>
<g clip-path="url(#clip0_901_27499)">
<path d="M186.512 96.375C186.512 98.8614 185.524 101.246 183.766 103.004C182.008 104.762 179.623 105.75 177.137 105.75C174.65 105.75 172.266 104.762 170.508 103.004C168.749 101.246 167.762 98.8614 167.762 96.375C167.762 93.8886 168.749 91.504 170.508 89.7459C172.266 87.9877 174.65 87 177.137 87C179.623 87 182.008 87.9877 183.766 89.7459C185.524 91.504 186.512 93.8886 186.512 96.375Z" fill="#D9D9D9"/>
<path d="M161.512 68.25C158.197 68.25 155.017 69.567 152.673 71.9112C150.329 74.2554 149.012 77.4348 149.012 80.75V143.25C149.012 146.565 150.329 149.745 152.673 152.089C155.017 154.433 158.197 155.75 161.512 155.75H236.512C239.827 155.75 243.006 154.433 245.351 152.089C247.695 149.745 249.012 146.565 249.012 143.25V80.75C249.012 77.4348 247.695 74.2554 245.351 71.9112C243.006 69.567 239.827 68.25 236.512 68.25H161.512ZM236.512 74.5C238.169 74.5 239.759 75.1585 240.931 76.3306C242.103 77.5027 242.762 79.0924 242.762 80.75V121.375L219.155 109.206C218.569 108.913 217.906 108.811 217.259 108.915C216.611 109.019 216.013 109.325 215.549 109.787L192.362 132.975L175.737 121.9C175.136 121.5 174.416 121.321 173.699 121.391C172.981 121.462 172.31 121.779 171.799 122.287L155.262 137V80.75C155.262 79.0924 155.92 77.5027 157.092 76.3306C158.264 75.1585 159.854 74.5 161.512 74.5H236.512Z" fill="#D9D9D9"/>
</g>
<defs>
<clipPath id="clip0_901_27499">
<rect width="100" height="100" fill="white" transform="translate(149 62)"/>
</clipPath>
</defs>
</svg>
