<svg width="44" height="44" viewBox="0 0 44 44" fill="none" xmlns="http://www.w3.org/2000/svg">
<g clip-path="url(#clip0_911_27870)">
<path d="M22 44C27.8348 44 33.4305 41.6821 37.5563 37.5563C41.6822 33.4305 44 27.8348 44 22C44 16.1652 41.6822 10.5694 37.5564 6.44365C33.4306 2.31785 27.8348 -1.41321e-06 22 -1.9233e-06C16.1652 -2.43339e-06 10.5695 2.31785 6.44365 6.44365C2.31785 10.5694 2.43339e-06 16.1652 1.9233e-06 22C1.41321e-06 27.8348 2.31785 33.4305 6.44365 37.5563C10.5695 41.6821 16.1652 44 22 44ZM12.375 23.375C12.0103 23.375 11.6606 23.2301 11.4027 22.9723C11.1449 22.7144 11 22.3647 11 22C11 21.6353 11.1449 21.2856 11.4027 21.0277C11.6606 20.7699 12.0103 20.625 12.375 20.625L28.3058 20.625L22.4015 14.7235C22.2737 14.5957 22.1723 14.4439 22.1031 14.2769C22.0339 14.1098 21.9983 13.9308 21.9983 13.75C21.9983 13.5692 22.0339 13.3902 22.1031 13.2231C22.1723 13.0561 22.2737 12.9043 22.4015 12.7765C22.5293 12.6487 22.6811 12.5472 22.8481 12.4781C23.0152 12.4089 23.1942 12.3733 23.375 12.3733C23.5558 12.3733 23.7348 12.4089 23.9019 12.4781C24.0689 12.5472 24.2207 12.6487 24.3485 12.7765L32.5985 21.0265C32.7266 21.1542 32.8281 21.306 32.8975 21.473C32.9668 21.6401 33.0025 21.8191 33.0025 22C33.0025 22.1809 32.9668 22.3599 32.8975 22.527C32.8281 22.694 32.7266 22.8458 32.5985 22.9735L24.3485 31.2235C24.0903 31.4817 23.7401 31.6267 23.375 31.6267C23.0099 31.6267 22.6597 31.4817 22.4015 31.2235C22.1433 30.9653 21.9983 30.6151 21.9983 30.25C21.9983 29.8849 22.1433 29.5347 22.4015 29.2765L28.3058 23.375L12.375 23.375Z" fill="#0699A6"/>
</g>
<defs>
<clipPath id="clip0_911_27870">
<rect width="44" height="44" fill="white" transform="translate(44 44) rotate(-180)"/>
</clipPath>
</defs>
</svg>
