<svg width="26" height="20" viewBox="0 0 26 20" fill="none" xmlns="http://www.w3.org/2000/svg">
<path d="M1.52297 4.41538L1.46143 3.07692C1.46143 2.26087 1.7856 1.47824 2.36264 0.90121C2.93967 0.324175 3.7223 0 4.53835 0H10.1876C11.0036 0.000174269 11.7861 0.324463 12.363 0.901538L13.6368 2.17538C14.2137 2.75246 14.9962 3.07675 15.8122 3.07692H21.9384C22.3659 3.07688 22.7888 3.16595 23.18 3.33845C23.5713 3.51095 23.9222 3.76309 24.2106 4.0788C24.4989 4.39451 24.7183 4.76685 24.8548 5.17207C24.9912 5.57729 25.0417 6.00649 25.003 6.43231L24.023 17.2015C23.9535 17.966 23.6008 18.6769 23.034 19.1947C22.4673 19.7125 21.7275 19.9997 20.9599 20H5.03989C4.27226 19.9997 3.53246 19.7125 2.96573 19.1947C2.39901 18.6769 2.04628 17.966 1.97681 17.2015L0.996813 6.43231C0.932562 5.71977 1.11861 5.00712 1.52297 4.41692V4.41538ZM4.06143 4.61538C3.84771 4.61537 3.63634 4.65989 3.44078 4.74609C3.24523 4.83229 3.06978 4.9583 2.92561 5.11606C2.78145 5.27383 2.67174 5.45991 2.60347 5.66242C2.53521 5.86494 2.50989 6.07946 2.52912 6.29231L3.50912 17.0615C3.54366 17.4438 3.71984 17.7993 4.00305 18.0583C4.28627 18.3174 4.65608 18.4612 5.03989 18.4615H20.9599C21.3437 18.4612 21.7135 18.3174 21.9967 18.0583C22.2799 17.7993 22.4561 17.4438 22.4907 17.0615L23.4707 6.29231C23.4899 6.07946 23.4646 5.86494 23.3963 5.66242C23.328 5.45991 23.2183 5.27383 23.0742 5.11606C22.93 4.9583 22.7546 4.83229 22.559 4.74609C22.3634 4.65989 22.1521 4.61537 21.9384 4.61538H4.06143ZM11.2768 1.98923C11.1338 1.84618 10.964 1.73273 10.7771 1.65538C10.5902 1.57803 10.3899 1.5383 10.1876 1.53846H4.53835C4.13534 1.53839 3.74839 1.69646 3.4607 1.97868C3.17301 2.26091 3.00755 2.64475 2.99989 3.04769L3.00912 3.26154C3.3404 3.13949 3.69117 3.07795 4.06143 3.07692H12.363L11.2768 1.98923Z" fill="black"/>
<path d="M7 11.994C7 11.184 7.666 10.5 8.476 10.5C9.286 10.5 9.97 11.184 9.97 11.994C9.97 12.804 9.286 13.47 8.476 13.47C7.666 13.47 7 12.804 7 11.994Z" fill="black"/>
<path d="M11.2363 11.994C11.2363 11.184 11.9023 10.5 12.7123 10.5C13.5223 10.5 14.2063 11.184 14.2063 11.994C14.2063 12.804 13.5223 13.47 12.7123 13.47C11.9023 13.47 11.2363 12.804 11.2363 11.994Z" fill="black"/>
<path d="M15.4727 11.994C15.4727 11.184 16.1387 10.5 16.9487 10.5C17.7587 10.5 18.4427 11.184 18.4427 11.994C18.4427 12.804 17.7587 13.47 16.9487 13.47C16.1387 13.47 15.4727 12.804 15.4727 11.994Z" fill="black"/>
</svg>
